<svg width="32" height="32" viewBox="0 0 32 32" fill="none" xmlns="http://www.w3.org/2000/svg">
<rect width="32" height="32" fill="white"/>
<path d="M25.6497 24.625C25.5838 24.739 25.4891 24.8337 25.3751 24.8995C25.261 24.9654 25.1316 25 25 25H6.99996C6.86838 24.9999 6.73914 24.9651 6.62523 24.8992C6.51133 24.8333 6.41676 24.7386 6.35102 24.6247C6.28529 24.5107 6.2507 24.3814 6.25073 24.2498C6.25077 24.1182 6.28542 23.9889 6.35121 23.875C7.77903 21.4065 9.97934 19.6365 12.5472 18.7975C11.277 18.0414 10.2902 16.8892 9.7382 15.5179C9.18624 14.1467 9.09967 12.6321 9.49178 11.2069C9.8839 9.78165 10.733 8.52454 11.9087 7.6286C13.0845 6.73266 14.5218 6.24744 16 6.24744C17.4781 6.24744 18.9155 6.73266 20.0912 7.6286C21.2669 8.52454 22.116 9.78165 22.5081 11.2069C22.9003 12.6321 22.8137 14.1467 22.2617 15.5179C21.7098 16.8892 20.7229 18.0414 19.4528 18.7975C22.0206 19.6365 24.2209 21.4065 25.6487 23.875C25.7147 23.9889 25.7495 24.1182 25.7497 24.2499C25.7498 24.3815 25.7153 24.5109 25.6497 24.625Z" fill="#ADBBCC"/>
</svg>
