<svg width="16" height="16" viewBox="0 0 16 16" fill="none" xmlns="http://www.w3.org/2000/svg">
<path d="M10.1667 7.86667C10.4931 7.6679 10.7685 7.39562 10.9711 7.07153C11.1736 6.74744 11.2977 6.38052 11.3333 6C11.3395 5.65592 11.2778 5.314 11.1519 4.99376C11.0259 4.67351 10.838 4.38123 10.5991 4.13359C10.3601 3.88596 10.0747 3.68783 9.75913 3.55052C9.44358 3.41321 9.10407 3.33941 8.75999 3.33334H4.43332V12.6667H9.09999C9.42742 12.6632 9.75096 12.5952 10.0521 12.4667C10.3533 12.3382 10.6262 12.1516 10.8553 11.9176C11.0843 11.6836 11.265 11.4067 11.3871 11.1029C11.5092 10.799 11.5702 10.4741 11.5667 10.1467V10.0667C11.5669 9.60474 11.4353 9.15235 11.1873 8.76264C10.9393 8.37293 10.5852 8.0621 10.1667 7.86667V7.86667ZM5.76665 4.66667H8.56665C8.85077 4.65788 9.13077 4.73619 9.3691 4.8911C9.60743 5.04602 9.79268 5.27012 9.89999 5.53334C10.0086 5.88519 9.97345 6.26573 9.80231 6.59177C9.63117 6.91782 9.33792 7.16285 8.98665 7.27334C8.85024 7.31331 8.7088 7.33352 8.56665 7.33334H5.76665V4.66667ZM8.83332 11.3333H5.76665V8.66667H8.83332C9.11743 8.65788 9.39744 8.73619 9.63577 8.8911C9.8741 9.04602 10.0593 9.27012 10.1667 9.53334C10.2752 9.88519 10.2401 10.2657 10.069 10.5918C9.89783 10.9178 9.60459 11.1629 9.25332 11.2733C9.11691 11.3133 8.97547 11.3335 8.83332 11.3333V11.3333Z" fill="black"/>
</svg>
