<svg width="16" height="16" viewBox="0 0 16 16" fill="none" xmlns="http://www.w3.org/2000/svg">
<path d="M2.66669 7C2.13335 7 1.66669 7.46666 1.66669 8C1.66669 8.53333 2.13335 9 2.66669 9C3.20002 9 3.66669 8.53333 3.66669 8C3.66669 7.46666 3.20002 7 2.66669 7ZM2.66669 3.66666C2.13335 3.66666 1.66669 4.13333 1.66669 4.66666C1.66669 5.2 2.13335 5.66666 2.66669 5.66666C3.20002 5.66666 3.66669 5.2 3.66669 4.66666C3.66669 4.13333 3.20002 3.66666 2.66669 3.66666ZM2.66669 10.3333C2.13335 10.3333 1.66669 10.8 1.66669 11.3333C1.66669 11.8667 2.13335 12.3333 2.66669 12.3333C3.20002 12.3333 3.66669 11.8667 3.66669 11.3333C3.66669 10.8 3.20002 10.3333 2.66669 10.3333ZM5.00002 4V5.33333H14.3334V4H5.00002ZM5.00002 12H14.3334V10.6667H5.00002V12ZM5.00002 8.66666H14.3334V7.33333H5.00002V8.66666Z" fill="black"/>
</svg>
