<svg width="16" height="16" viewBox="0 0 16 16" fill="none" xmlns="http://www.w3.org/2000/svg">
<path d="M7.994 2C6.80757 2.00119 5.64812 2.35409 4.66222 3.0141C3.67631 3.67411 2.90821 4.61159 2.45501 5.70805C2.0018 6.80451 1.88384 8.01072 2.11602 9.17421C2.34821 10.3377 2.92013 11.4062 3.75948 12.2448C4.59884 13.0833 5.66794 13.6541 6.83167 13.8851C7.99539 14.1162 9.20148 13.997 10.2975 13.5427C11.3935 13.0884 12.3302 12.3194 12.9892 11.3328C13.6483 10.3462 14 9.18643 14 8C14.0004 7.21145 13.8453 6.43057 13.5435 5.70205C13.2417 4.97353 12.7993 4.31168 12.2414 3.75437C11.6835 3.19706 11.0212 2.75524 10.2924 2.45421C9.56358 2.15317 8.78255 1.99882 7.994 2ZM8 12.6667C7.07702 12.6667 6.17477 12.393 5.40734 11.8802C4.63991 11.3674 4.04177 10.6386 3.68856 9.78586C3.33536 8.93313 3.24294 7.99482 3.423 7.08958C3.60307 6.18433 4.04753 5.35281 4.70017 4.70017C5.35282 4.04752 6.18434 3.60307 7.08958 3.423C7.99483 3.24294 8.93314 3.33535 9.78586 3.68856C10.6386 4.04177 11.3674 4.63991 11.8802 5.40734C12.393 6.17477 12.6667 7.07702 12.6667 8C12.6668 8.61288 12.5462 9.21979 12.3118 9.78605C12.0773 10.3523 11.7336 10.8668 11.3002 11.3002C10.8668 11.7336 10.3523 12.0773 9.78606 12.3118C9.2198 12.5462 8.61289 12.6668 8 12.6667ZM10.07 9.2H11.072C10.831 9.81866 10.4087 10.3501 9.86059 10.7248C9.31246 11.0995 8.66397 11.3 8 11.3C7.33604 11.3 6.68754 11.0995 6.13941 10.7248C5.59128 10.3501 5.16905 9.81866 4.928 9.2H5.93C6.13879 9.5646 6.44018 9.86758 6.80367 10.0783C7.16716 10.289 7.57985 10.4 8 10.4C8.42015 10.4 8.83285 10.289 9.19634 10.0783C9.55983 9.86758 9.86121 9.5646 10.07 9.2ZM5 6.5C5 6.322 5.05279 6.14799 5.15168 5.99999C5.25057 5.85198 5.39113 5.73663 5.55559 5.66851C5.72004 5.60039 5.901 5.58257 6.07558 5.61729C6.25017 5.65202 6.41053 5.73774 6.5364 5.8636C6.66227 5.98947 6.74798 6.14984 6.78271 6.32442C6.81744 6.499 6.79961 6.67996 6.73149 6.84441C6.66338 7.00887 6.54802 7.14943 6.40002 7.24832C6.25201 7.34722 6.07801 7.4 5.9 7.4C5.66131 7.4 5.43239 7.30518 5.26361 7.1364C5.09482 6.96761 5 6.73869 5 6.5ZM9.2 6.5C9.2 6.322 9.25279 6.14799 9.35168 5.99999C9.45057 5.85198 9.59113 5.73663 9.75559 5.66851C9.92004 5.60039 10.101 5.58257 10.2756 5.61729C10.4502 5.65202 10.6105 5.73774 10.7364 5.8636C10.8623 5.98947 10.948 6.14984 10.9827 6.32442C11.0174 6.499 10.9996 6.67996 10.9315 6.84441C10.8634 7.00887 10.748 7.14943 10.6 7.24832C10.452 7.34722 10.278 7.4 10.1 7.4C9.86131 7.4 9.63239 7.30518 9.46361 7.1364C9.29482 6.96761 9.2 6.73869 9.2 6.5Z" fill="black"/>
</svg>
