<svg width="16" height="16" viewBox="0 0 16 16" fill="none" xmlns="http://www.w3.org/2000/svg">
<path d="M9.46665 7.33333L12 10.6667H3.99998L5.99998 8.06666L7.39998 9.86666L9.33331 7.33333H9.46665ZM5.66665 7.33333C6.19998 7.33333 6.66665 6.86666 6.66665 6.33333C6.66665 5.8 6.19998 5.33333 5.66665 5.33333C5.13331 5.33333 4.66665 5.8 4.66665 6.33333C4.66665 6.86666 5.13331 7.33333 5.66665 7.33333ZM14.6666 4V12C14.6666 12.7333 14.0666 13.3333 13.3333 13.3333H2.66665C1.93331 13.3333 1.33331 12.7333 1.33331 12V4C1.33331 3.26666 1.93331 2.66666 2.66665 2.66666H13.3333C14.0666 2.66666 14.6666 3.26666 14.6666 4ZM13.3333 5.86666V4H2.66665V12H13.3333V5.86666Z" fill="black"/>
</svg>
