<svg width="16" height="16" viewBox="0 0 16 16" fill="none" xmlns="http://www.w3.org/2000/svg">
<path d="M7.84002 6H9.17335L7.70669 12.6667H6.37335L7.84002 6ZM8.96002 3.33334C8.82816 3.33334 8.69927 3.37244 8.58964 3.44569C8.48001 3.51894 8.39456 3.62306 8.3441 3.74488C8.29364 3.8667 8.28044 4.00074 8.30616 4.13006C8.33189 4.25938 8.39538 4.37817 8.48861 4.47141C8.58185 4.56464 8.70064 4.62814 8.82996 4.65386C8.95928 4.67958 9.09332 4.66638 9.21514 4.61592C9.33696 4.56546 9.44108 4.48002 9.51433 4.37038C9.58759 4.26075 9.62668 4.13186 9.62668 4C9.62668 3.82319 9.55645 3.65362 9.43142 3.5286C9.3064 3.40357 9.13683 3.33334 8.96002 3.33334Z" fill="black"/>
</svg>
