<svg width="16" height="16" viewBox="0 0 16 16" fill="none" xmlns="http://www.w3.org/2000/svg">
<path d="M6.87859 3.33334L7.50404 4.21507C6.70552 4.7771 6.0087 5.4712 5.44354 6.2675C5.0225 6.87022 4.79085 7.58484 4.7782 8.31994V8.54483C4.9386 8.52362 5.08541 8.50495 5.21865 8.48883C5.34365 8.47315 5.46947 8.46493 5.59544 8.46422C5.85657 8.45658 6.1165 8.50247 6.35922 8.59909C6.60193 8.69571 6.8223 8.84101 7.00673 9.02602C7.19066 9.2079 7.3354 9.42551 7.43202 9.66546C7.52864 9.90541 7.5751 10.1626 7.56853 10.4212C7.58326 10.7195 7.53839 11.0178 7.43654 11.2986C7.33468 11.5793 7.1779 11.837 6.97533 12.0565C6.7699 12.2615 6.52412 12.4216 6.25357 12.5266C5.98302 12.6317 5.6936 12.6794 5.40365 12.6667C5.05533 12.6741 4.70997 12.6013 4.39431 12.4538C4.07865 12.3064 3.80116 12.0882 3.58334 11.8163C3.09012 11.1992 2.83664 10.4246 2.86962 9.63534C2.86775 8.42276 3.21895 7.23587 3.88034 6.21956C4.66251 5.05469 5.68479 4.0706 6.87859 3.33334ZM12.4735 3.33334L13.0981 4.21507C12.2996 4.7771 11.6028 5.4712 11.0376 6.2675C10.6166 6.87022 10.385 7.58484 10.3723 8.31994V8.54483C10.5217 8.52362 10.6634 8.50495 10.7975 8.48883C10.9278 8.47276 11.059 8.46455 11.1904 8.46422C11.4498 8.45399 11.7085 8.49791 11.9501 8.59318C12.1916 8.68844 12.4106 8.83297 12.5932 9.01756C12.7719 9.2038 12.9115 9.42396 13.0038 9.66503C13.0961 9.90611 13.1391 10.1632 13.1304 10.4212C13.1607 11.021 12.9533 11.6086 12.5533 12.0565C12.3517 12.2622 12.1089 12.4228 11.8408 12.528C11.5727 12.6332 11.2854 12.6804 10.9978 12.6667C10.6473 12.6729 10.3 12.5996 9.98192 12.4523C9.66385 12.3051 9.3833 12.0876 9.16134 11.8163C8.65875 11.2035 8.39899 10.4273 8.43148 9.63534C8.43553 8.4351 8.78942 7.26208 9.44984 6.25987C10.2428 5.0843 11.2727 4.08747 12.4735 3.33334Z" fill="black"/>
</svg>
