<svg width="16" height="16" viewBox="0 0 16 16" fill="none" xmlns="http://www.w3.org/2000/svg">
<path d="M2 8.1353H14V9.1353H11.0895C11.2474 9.46678 11.3271 9.83009 11.3224 10.1972C11.3318 10.5456 11.257 10.891 11.1045 11.2043C10.952 11.5176 10.7262 11.7895 10.4462 11.997C9.77194 12.4715 8.95851 12.7072 8.13501 12.6667C7.5333 12.6707 6.93746 12.5483 6.38611 12.3073C5.88258 12.0985 5.44612 11.7553 5.12435 11.3152C4.82808 10.8951 4.67175 10.3923 4.67757 9.87826V9.80267H4.86906V9.80194H5.09672V9.80267H6.01333V9.87823C6.00289 10.1125 6.04921 10.3458 6.14836 10.5583C6.2475 10.7708 6.39653 10.9562 6.58275 11.0987C7.03436 11.4202 7.58134 11.5798 8.13499 11.5515C8.62375 11.5835 9.10965 11.4557 9.51943 11.1874C9.67135 11.0751 9.7934 10.9272 9.87491 10.7567C9.95642 10.5863 9.9949 10.3985 9.98697 10.2097C9.99759 10.0273 9.96391 9.84509 9.8888 9.67857C9.81368 9.51204 9.69937 9.36618 9.55563 9.25344C9.49673 9.21075 9.43555 9.1713 9.37236 9.13527H2V8.1353ZM10.8965 4.70654C10.6155 4.26988 10.2181 3.9204 9.74907 3.69747C9.22624 3.44841 8.65285 3.32378 8.07381 3.33334C7.2664 3.29868 6.47255 3.54936 5.83146 4.04142C5.55623 4.25399 5.33423 4.52766 5.18299 4.8408C5.03174 5.15395 4.95542 5.49798 4.96004 5.8457C4.95771 6.17523 5.03106 6.5009 5.17444 6.79761H6.90556C6.84997 6.76184 6.78198 6.7271 6.7371 6.69052C6.60146 6.59046 6.49134 6.4598 6.41572 6.30916C6.34009 6.15852 6.30109 5.99216 6.30188 5.82361C6.29182 5.6312 6.32828 5.43921 6.40817 5.26388C6.48806 5.08855 6.60903 4.93506 6.76083 4.81641C7.14489 4.55005 7.60725 4.42036 8.07381 4.44812C8.5811 4.41587 9.08205 4.57493 9.47781 4.89392C9.64332 5.04978 9.77294 5.23979 9.85767 5.45076C9.9424 5.66172 9.98021 5.8886 9.96848 6.11564V6.19125H11.3039V6.11564C11.3062 5.61657 11.1647 5.12741 10.8965 4.70654Z" fill="black"/>
</svg>
